HIERARCHY
ROOT Hips
{
	OFFSET 0.000000 89.005402 0.000000
	CHANNELS 6 Xposition Yposition Zposition Xrotation Yrotation Zrotation
	JOINT Spine
	{
		OFFSET 0.116900 10.681000 0.373400
		CHANNELS 3 Xrotation Yrotation Zrotation
		JOINT Spine1
		{
			OFFSET 0.000000 13.840401 0.053500
			CHANNELS 3 Xrotation Yrotation Zrotation
			JOINT Spine2
			{
				OFFSET 0.000000 14.712700 -0.366200
				CHANNELS 3 Xrotation Yrotation Zrotation
				JOINT Neck
				{
					OFFSET 0.000000 35.415497 -3.314200
					CHANNELS 3 Xrotation Yrotation Zrotation
					JOINT Head
					{
						OFFSET 0.000000 16.899200 1.218300
						CHANNELS 3 Xrotation Yrotation Zrotation
						JOINT HeadTop_End
						{
							OFFSET 0.000000 22.206207 2.192500
							CHANNELS 3 Xrotation Yrotation Zrotation
							End Site
							{
								OFFSET 0.000000 22.314178 0.000000
							}
						}
					}
				}
				JOINT LeftShoulder
				{
					OFFSET 12.896400 26.716293 -4.548400
					CHANNELS 3 Xrotation Yrotation Zrotation
					JOINT LeftArm
					{
						OFFSET 19.027000 -4.857010 -1.718400
						CHANNELS 3 Xrotation Yrotation Zrotation
						JOINT LeftForeArm
						{
							OFFSET 24.179897 0.000000 0.000000
							CHANNELS 3 Xrotation Yrotation Zrotation
							JOINT LeftHand
							{
								OFFSET 27.156403 0.000000 0.000000
								CHANNELS 3 Xrotation Yrotation Zrotation
								JOINT LeftHandIndex1
								{
									OFFSET 16.441200 0.000000 0.000000
									CHANNELS 3 Xrotation Yrotation Zrotation
									JOINT LeftHandIndex2
									{
										OFFSET 4.821899 0.000000 0.000000
										CHANNELS 3 Xrotation Yrotation Zrotation
										JOINT LeftHandIndex3
										{
											OFFSET 6.386497 0.000000 0.000000
											CHANNELS 3 Xrotation Yrotation Zrotation
											JOINT LeftHandIndex4
											{
												OFFSET 5.188988 0.000000 0.000000
												CHANNELS 3 Xrotation Yrotation Zrotation
												End Site
												{
													OFFSET -0.178703 5.185913 0.000177
												}
											}
										}
									}
								}
								JOINT LeftHandThumb1
								{
									OFFSET 6.534897 -5.032593 5.900300
									CHANNELS 3 Xrotation Yrotation Zrotation
									JOINT LeftHandThumb2
									{
										OFFSET 3.818176 -2.204422 2.204423
										CHANNELS 3 Xrotation Yrotation Zrotation
										JOINT LeftHandThumb3
										{
											OFFSET 3.252098 -1.877594 1.877601
											CHANNELS 3 Xrotation Yrotation Zrotation
											JOINT LeftHandThumb4
											{
												OFFSET 5.251778 -3.032120 3.032117
												CHANNELS 3 Xrotation Yrotation Zrotation
												End Site
												{
													OFFSET 0.000023 6.780014 0.000000
												}
											}
										}
									}
								}
							}
						}
					}
				}
				JOINT RightShoulder
				{
					OFFSET -12.896300 26.716293 -4.548400
					CHANNELS 3 Xrotation Yrotation Zrotation
					JOINT RightArm
					{
						OFFSET -19.027000 -4.857010 -1.718400
						CHANNELS 3 Xrotation Yrotation Zrotation
						JOINT RightForeArm
						{
							OFFSET -24.179897 0.000000 0.000000
							CHANNELS 3 Xrotation Yrotation Zrotation
							JOINT RightHand
							{
								OFFSET -27.156403 0.000000 0.000000
								CHANNELS 3 Xrotation Yrotation Zrotation
								JOINT RightHandThumb1
								{
									OFFSET -6.591202 -4.852203 5.988100
									CHANNELS 3 Xrotation Yrotation Zrotation
									JOINT RightHandThumb2
									{
										OFFSET -3.818176 -2.204422 2.204423
										CHANNELS 3 Xrotation Yrotation Zrotation
										JOINT RightHandThumb3
										{
											OFFSET -3.252098 -1.877594 1.877601
											CHANNELS 3 Xrotation Yrotation Zrotation
											JOINT RightHandThumb4
											{
												OFFSET -5.251778 -3.032120 3.032117
												CHANNELS 3 Xrotation Yrotation Zrotation
												End Site
												{
													OFFSET -0.000023 6.780014 0.000000
												}
											}
										}
									}
								}
								JOINT RightHandIndex1
								{
									OFFSET -16.029404 0.000000 0.000000
									CHANNELS 3 Xrotation Yrotation Zrotation
									JOINT RightHandIndex2
									{
										OFFSET -5.213303 0.000000 0.000000
										CHANNELS 3 Xrotation Yrotation Zrotation
										JOINT RightHandIndex3
										{
											OFFSET -6.386528 0.000000 0.000000
											CHANNELS 3 Xrotation Yrotation Zrotation
											JOINT RightHandIndex4
											{
												OFFSET -5.189026 0.000000 0.000000
												CHANNELS 3 Xrotation Yrotation Zrotation
												End Site
												{
													OFFSET 0.236702 5.183624 0.001972
												}
											}
										}
									}
								}
							}
						}
					}
				}
			}
		}
	}
	JOINT LeftUpLeg
	{
		OFFSET 14.073000 -7.904099 -1.463000
		CHANNELS 3 Xrotation Yrotation Zrotation
		JOINT LeftLeg
		{
			OFFSET -0.109806 -34.073280 4.093200
			CHANNELS 3 Xrotation Yrotation Zrotation
			JOINT LeftFoot
			{
				OFFSET 0.109806 -29.899420 -6.319000
				CHANNELS 3 Xrotation Yrotation Zrotation
				JOINT LeftToeBase
				{
					OFFSET 1.551100 -14.988700 20.535801
					CHANNELS 3 Xrotation Yrotation Zrotation
					JOINT LeftToe_End
					{
						OFFSET 0.221200 0.570800 13.248301
						CHANNELS 3 Xrotation Yrotation Zrotation
						End Site
						{
							OFFSET 0.000000 13.262435 0.000000
						}
					}
				}
			}
		}
	}
	JOINT RightUpLeg
	{
		OFFSET -13.839300 -7.904099 -1.463000
		CHANNELS 3 Xrotation Yrotation Zrotation
		JOINT RightLeg
		{
			OFFSET 0.109694 -34.073219 4.093300
			CHANNELS 3 Xrotation Yrotation Zrotation
			JOINT RightFoot
			{
				OFFSET -0.109694 -29.899384 -6.319200
				CHANNELS 3 Xrotation Yrotation Zrotation
				JOINT RightToeBase
				{
					OFFSET -1.551100 -14.988700 20.535801
					CHANNELS 3 Xrotation Yrotation Zrotation
					JOINT RightToe_End
					{
						OFFSET -0.221200 0.570900 13.248299
						CHANNELS 3 Xrotation Yrotation Zrotation
						End Site
						{
							OFFSET 0.000000 13.262440 0.000000
						}
					}
				}
			}
		}
	}
}
MOTION
Frames: 4
Frame Time: 0.033333
0.350818 77.342110 2.624496 -7.214219 -20.980403 2.843221 1.641067 -2.894018 -2.763209 3.336824 -6.384172 -2.865465 3.286856 -6.417518 -2.855700 11.002018 2.713637 6.213526 7.888220 20.324398 1.581624 0.000000 0.000001 -0.000000 -4.093062 22.291337 10.766053 -66.442216 -20.964572 -95.660044 0.000022 -50.490302 0.000017 -88.059901 21.974448 4.013537 0.376619 2.250163 -19.001597 0.376619 2.250155 -19.001600 0.376633 2.250150 -19.001600 -0.000002 0.000001 0.000001 -0.103834 -0.248400 -2.734986 3.939049 7.948724 0.746807 -0.579465 1.574997 2.538719 -0.000004 0.000001 -0.000001 0.487494 -1.209067 6.732896 -60.313473 62.459013 79.644520 0.000554 91.457681 -0.000615 -43.425079 -7.290180 -43.099170 38.020436 -4.605768 16.463633 -0.847564 -24.436445 -11.782705 -9.146202 -3.936242 -10.345732 0.000002 0.000001 0.000000 0.042317 0.767586 -6.311583 5.998820 -6.883385 82.127492 3.209512 -5.860756 57.382885 -0.000001 -0.000003 0.000001 -27.971185 11.029328 11.170055 72.432141 -0.836233 -3.071154 -13.138157 -0.978832 6.349081 -14.729426 3.013892 -11.257138 0.000000 -0.000000 0.000000 -17.443299 -2.006919 6.206619 55.759708 -2.431924 -7.752019 -31.119769 1.513150 -3.997316 -0.554616 -0.000005 0.000001 0.000000 0.000000 0.000000 
0.098876 77.765083 4.616660 -7.816360 -21.695889 2.124309 1.779305 -2.701085 -2.973375 3.551919 -5.978271 -2.913345 3.501663 -6.012315 -2.909683 11.078815 2.690338 6.480143 8.863441 20.761651 0.961546 -0.000003 0.000000 0.000001 -4.058538 21.762535 11.058043 -66.165880 -20.114304 -95.545761 0.000002 -49.828269 0.000006 -90.997080 19.935555 3.580933 0.376622 2.250166 -19.001595 0.376625 2.250157 -19.001602 0.376632 2.250157 -19.001600 -0.000003 0.000001 0.000003 -0.103832 -0.248398 -2.734985 3.939043 7.948716 0.746808 -0.579463 1.574993 2.538719 0.000000 -0.000001 -0.000000 0.533873 -1.067721 8.162382 -58.864046 63.939812 78.144399 0.003084 91.166360 -0.002991 -43.491083 -7.483100 -41.393497 38.020439 -4.605768 16.463637 -0.847561 -24.436445 -11.782706 -9.146206 -3.936242 -10.345731 -0.000001 -0.000000 -0.000000 0.042318 0.767583 -6.311581 5.998821 -6.883382 82.127492 3.209513 -5.860759 57.382885 0.000001 -0.000003 -0.000002 -29.065358 11.065111 11.482724 68.233795 -1.316087 -2.984981 -12.823317 -0.971812 6.034660 -10.089756 1.835367 -10.154434 -0.000000 0.000000 -0.000000 -13.990759 -3.127395 5.515393 54.264842 -0.256329 -7.650899 -32.289610 1.759799 -4.684473 -1.222808 0.000002 -0.000001 -0.000000 0.000000 -0.000000 
-0.225861 78.375153 7.599582 -8.135320 -22.693672 1.349896 1.899690 -2.515462 -3.163243 3.718734 -5.541352 -2.879769 3.670218 -5.573509 -2.883046 11.093865 2.673118 6.760083 9.708579 21.217682 0.461969 0.000002 0.000000 0.000001 -4.040231 21.370736 11.334504 -65.589999 -19.392328 -95.408098 0.000024 -49.943743 0.000030 -93.993034 18.069658 1.716911 0.376623 2.250164 -19.001595 0.376623 2.250157 -19.001602 0.376632 2.250156 -19.001600 -0.000002 0.000000 0.000001 -0.103828 -0.248402 -2.734984 3.939044 7.948720 0.746806 -0.579462 1.574995 2.538717 -0.000000 -0.000001 0.000001 0.573410 -0.899255 9.407863 -57.420349 65.326292 76.583407 -0.008232 90.935868 0.008374 -43.884563 -7.330048 -39.982992 38.020436 -4.605770 16.463638 -0.847558 -24.436441 -11.782708 -9.146205 -3.936241 -10.345734 -0.000000 -0.000002 -0.000002 0.042317 0.767584 -6.311582 5.998821 -6.883386 82.127492 3.209512 -5.860761 57.382878 -0.000001 -0.000002 -0.000002 -30.034555 11.350562 12.137092 58.972509 -2.916311 -2.703015 -10.999534 -0.743212 4.832603 -4.556920 0.530722 -6.626595 -0.000000 0.000001 0.000000 -9.328059 -4.315450 4.708248 51.525441 1.939150 -7.843338 -33.747241 2.066976 -4.838627 -2.185477 -0.000007 -0.000001 -0.000000 -0.000002 -0.000000 
-0.619976 79.177124 11.525540 -8.382730 -23.930493 0.564607 2.004977 -2.349469 -3.407383 3.865850 -5.136654 -2.797289 3.820486 -5.165416 -2.806965 11.115487 2.668865 7.077933 10.464530 21.732987 0.141910 0.000001 0.000000 0.000000 -4.035506 21.009303 11.664367 -64.805156 -18.616616 -95.212605 0.000006 -50.575007 -0.000001 -97.234634 16.306438 -1.293897 0.376621 2.250156 -19.001595 0.376625 2.250154 -19.001603 0.376629 2.250153 -19.001602 -0.000001 0.000000 0.000000 -0.103833 -0.248403 -2.734983 3.939047 7.948721 0.746806 -0.579460 1.574995 2.538718 0.000002 -0.000000 0.000000 0.601456 -0.757251 10.482152 -56.110629 66.553657 75.279394 0.029065 90.782250 -0.029028 -44.571513 -6.676107 -39.149572 38.020436 -4.605770 16.463635 -0.847563 -24.436443 -11.782706 -9.146202 -3.936242 -10.345733 -0.000001 -0.000000 -0.000001 0.042318 0.767584 -6.311580 5.998823 -6.883382 82.127492 3.209511 -5.860759 57.382885 0.000004 0.000003 -0.000002 -29.822771 12.361255 12.949011 44.082215 -4.103862 -2.558726 -7.455946 -0.260321 2.519542 -0.011422 -0.000000 0.000001 0.000000 0.000001 -0.000000 -3.563678 -5.506490 3.631403 47.560038 4.925933 -8.263424 -34.861859 2.114005 -4.778618 -3.075853 -0.000002 -0.000000 0.000000 -0.000000 -0.000000 
